#!OML:ASF E:\Steps\Project 1\Capture day 1\Session 2\Subject.ASF
:FULLY-SPECIFIED
:DEGREES
606
root 4.26218 17.9251 16.269 -155.073 -3.23683 175.246
lowerback -28.7052 -2.67658 -8.24404
upperback -0.350083 -1.24634 -0.217969
thorax 14.9609 -1.33721 3.70906
lowerneck -0.194755 -0.0246994 -0.777785
upperneck 25.3584 -3.17922 1.70489
head 7.87815 -2.45056 0.347312
rclavicle 9.08819e-015 -1.28216e-014
rhumerus -44.409 -17.6588 -75.5644
rradius 30.838
rwrist -2.38592
rhand -9.05269 -56.1751
rfingers 7.12502
rthumb 16.8957 634.54
lclavicle 9.08819e-015 -1.28216e-014
lhumerus -31.7998 0.793755 83.2355
lradius 24.4203
lwrist -4.1042
lhand -20.554 -13.2534
lfingers 7.12502
lthumb 5.80494 16.6471
rfemur -22.2025 6.25754 18.0727
rtibia 10.6623
rfoot -19.7357 -1.38681
rtoes -17.3703
lfemur -21.6334 -8.87862 -23.5594
ltibia 7.20678
lfoot -6.02072 -5.08802
ltoes -26.4775
607
root 4.26227 17.9262 16.2626 -155.049 -3.19849 175.241
lowerback -28.6341 -2.6597 -8.26614
upperback -0.453913 -1.23877 -0.244262
thorax 14.8032 -1.33197 3.69618
lowerneck -0.245374 -0.0707936 -0.876462
upperneck 25.3644 -3.26093 1.81743
head 7.89349 -2.48827 0.395113
rclavicle -5.38582e-015 -5.91384e-015
rhumerus -44.4266 -17.4462 -75.7693
rradius 30.9847
rwrist -2.57091
rhand -9.0294 -56.5841
rfingers 7.12502
rthumb 16.9181 634.133
lclavicle -5.38582e-015 -5.91384e-015
lhumerus -31.8251 0.725903 83.2376
lradius 24.2218
lwrist -3.96605
lhand -20.7901 -13.1946
lfingers 7.12502
lthumb 5.57699 16.712
rfemur -22.2216 6.41678 18.0341
rtibia 10.7212
rfoot -19.7969 -1.46136
rtoes -16.9421
lfemur -21.6281 -8.83367 -23.5518
ltibia 7.15484
lfoot -6.11715 -5.02525
ltoes -26.3442
608
root 4.26063 17.9265 16.2539 -154.999 -3.18044 175.271
lowerback -28.6696 -2.66656 -8.2745
upperback -0.507623 -1.25697 -0.208618
thorax 14.76 -1.34195 3.73125
lowerneck -0.0453581 -0.193902 -0.986105
upperneck 24.8407 -3.35172 1.93184
head 7.68564 -2.509 0.45695
rclavicle 3.35449e-016 -5.56597e-015
rhumerus -44.3469 -17.2813 -75.8564
rradius 31.0743
rwrist -2.7771
rhand -9.01813 -56.4824
rfingers 7.12502
rthumb 16.929 634.235
lclavicle 3.35449e-016 -5.56597e-015
lhumerus -31.7314 0.942464 83.266
lradius 23.8898
lwrist -3.85483
lhand -21.5145 -13.4113
lfingers 7.12502
lthumb 4.87753 16.5126
rfemur -22.3538 6.62596 18.0561
rtibia 10.9693
rfoot -19.9676 -1.69596
rtoes -17.0568
lfemur -21.6299 -8.79963 -23.5098
ltibia 7.09543
lfoot -6.12105 -5.0651
ltoes -25.588
609
root 4.25585 17.926 16.2457 -154.943 -3.23669 175.286
lowerback -28.7191 -2.70147 -8.24842
upperback -0.561373 -1.32306 -0.164615
thorax 14.7294 -1.37138 3.7376
lowerneck -0.0237942 -0.0635707 -0.938649
upperneck 24.62 -3.09835 1.87571
head 7.60145 -2.37397 0.451229
rclavicle 1.28061e-014 2.13694e-015
rhumerus -44.2299 -17.0905 -75.9287
rradius 31.1135
rwrist -2.96009
rhand -9.20401 -56.4121
rfingers 7.12502
rthumb 16.7501 634.29
lclavicle 1.28061e-014 2.13694e-015
lhumerus -31.6398 1.26553 83.2575
lradius 23.5444
lwrist -3.98118
lhand -21.9248 -14.0147
lfingers 7.12502
lthumb 4.48136 15.9179
rfemur -22.7124 7.21973 17.9847
rtibia 11.7064
rfoot -20.37 -2.4397
rtoes -17.4443
lfemur -21.6437 -8.98998 -23.4614
ltibia 7.06745
lfoot -6.1351 -5.00655
ltoes -25.2192
